<?xml version="1.0" standalone="no"?>
<!DOCTYPE svg PUBLIC "-//W3C//DTD SVG 20010904//EN"
 "http://www.w3.org/TR/2001/REC-SVG-20010904/DTD/svg10.dtd">
<svg version="1.0" xmlns="http://www.w3.org/2000/svg"
 width="3840.000000pt" height="2160.000000pt" viewBox="0 0 3840.000000 2160.000000"
 preserveAspectRatio="xMidYMid meet">

<g transform="translate(0.000000,2160.000000) scale(0.100000,-0.100000)"
fill="#000000" stroke="none">
<path d="M24495 13253 c-22 -2 -85 -8 -140 -13 -738 -77 -1299 -525 -1399
-1119 -20 -120 -20 -303 -1 -417 56 -321 250 -626 516 -813 193 -136 335 -195
901 -372 247 -77 503 -162 568 -188 336 -135 470 -295 470 -564 0 -167 -49
-287 -165 -402 -177 -177 -473 -258 -910 -249 -384 7 -695 73 -1086 230 -200
79 -260 91 -308 58 -44 -31 -51 -69 -51 -277 0 -210 7 -250 56 -314 76 -100
309 -204 655 -292 476 -122 941 -142 1352 -60 158 31 364 95 487 151 428 196
735 575 804 993 65 396 -18 738 -245 1012 -99 121 -242 229 -418 318 -142 71
-229 103 -561 209 -711 226 -820 268 -975 370 -100 67 -165 137 -204 220 -52
108 -63 220 -35 353 65 317 357 467 909 466 368 0 660 -57 961 -188 57 -25
131 -52 164 -61 57 -14 63 -14 98 3 60 29 67 54 70 261 4 211 -6 263 -63 329
-39 46 -135 110 -220 148 -184 81 -508 159 -805 194 -93 11 -345 19 -425 14z"/>
<path d="M14056 13243 c-1 -1 -55 -3 -121 -4 -362 -6 -755 -89 -1140 -241
-192 -76 -302 -145 -338 -212 -21 -39 -22 -54 -22 -266 0 -198 2 -229 18 -258
38 -69 106 -65 317 20 274 109 602 201 835 234 160 23 470 22 618 0 408 -63
605 -218 702 -550 42 -146 55 -287 55 -591 l0 -273 -62 14 c-632 148 -1190
177 -1612 83 -529 -117 -937 -453 -1095 -902 -97 -276 -107 -660 -26 -943 63
-216 152 -368 310 -530 257 -261 558 -380 990 -389 299 -6 527 32 780 132 247
97 526 293 705 495 l69 77 71 -136 c94 -182 169 -292 260 -384 62 -62 84 -78
123 -88 75 -18 113 -2 322 136 214 141 229 153 256 205 31 60 25 113 -22 203
-60 113 -136 295 -163 389 -46 158 -48 205 -56 1296 -5 647 -12 1067 -19 1120
-105 814 -522 1230 -1340 1340 -73 10 -409 28 -415 23z m269 -2613 c212 -18
495 -62 630 -99 l40 -10 -6 -233 c-7 -239 -15 -308 -50 -437 -64 -238 -258
-459 -519 -591 -88 -44 -267 -102 -395 -127 -130 -25 -414 -25 -510 1 -239 63
-399 223 -461 461 -27 101 -27 392 0 485 89 312 326 491 716 544 126 17 390
20 555 6z"/>
<path d="M16384 13111 c-41 -17 -64 -60 -64 -116 0 -70 11 -110 223 -810 102
-335 310 -1022 462 -1525 642 -2123 591 -1961 641 -2027 14 -18 44 -43 67 -56
40 -21 53 -22 345 -25 413 -4 448 4 509 128 34 67 50 135 633 2590 105 443
194 813 198 823 4 11 55 -182 136 -520 70 -296 172 -722 226 -948 54 -225 178
-743 275 -1150 97 -407 187 -762 199 -790 29 -63 75 -108 129 -125 51 -16 563
-22 653 -8 78 12 128 42 164 98 37 58 25 21 595 1860 257 828 527 1699 600
1935 74 237 138 456 143 489 12 72 1 121 -33 155 l-25 26 -323 0 c-313 0 -323
-1 -371 -23 -105 -48 -108 -57 -364 -1057 -122 -473 -320 -1245 -440 -1715
-121 -470 -222 -864 -224 -875 -4 -16 -6 -17 -11 -5 -3 8 -96 400 -206 870
-669 2858 -613 2625 -645 2689 -58 113 -99 123 -483 119 -261 -3 -303 -5 -338
-21 -55 -25 -90 -61 -115 -120 -12 -27 -94 -356 -181 -731 -88 -375 -202 -861
-254 -1081 -328 -1400 -396 -1690 -399 -1693 -2 -1 -7 10 -10 25 -8 34 -442
1755 -676 2683 -94 371 -180 702 -191 736 -29 88 -70 149 -121 176 -42 23 -50
23 -373 25 -181 1 -340 -2 -351 -6z"/>
</g>
</svg>
