<?xml version="1.0" standalone="no"?>
<!DOCTYPE svg PUBLIC "-//W3C//DTD SVG 20010904//EN"
 "http://www.w3.org/TR/2001/REC-SVG-20010904/DTD/svg10.dtd">
<svg version="1.0" xmlns="http://www.w3.org/2000/svg"
 width="280.000000pt" height="280.000000pt" viewBox="0 0 280.000000 280.000000"
 preserveAspectRatio="xMidYMid meet">

<g transform="translate(0.000000,280.000000) scale(0.100000,-0.100000)"
fill="#000000" stroke="none">
<path d="M1225 2754 c-317 -48 -580 -179 -800 -399 -189 -189 -306 -402 -372
-675 -14 -57 -18 -113 -17 -235 1 -142 4 -171 28 -260 51 -189 141 -347 274
-487 164 -171 361 -280 587 -323 111 -22 359 -37 480 -30 210 12 501 65 627
114 l27 10 3 384 3 384 28 36 c32 42 65 61 120 71 20 4 37 11 37 16 0 6 -153
10 -400 10 -220 0 -400 -4 -400 -8 0 -5 22 -14 48 -21 27 -6 63 -25 81 -41 59
-54 61 -70 61 -389 0 -254 -2 -290 -16 -295 -35 -13 -235 -5 -340 14 -127 23
-202 47 -299 96 -418 212 -629 691 -505 1144 30 107 109 264 174 342 138 166
327 269 549 298 153 21 575 -27 667 -75 60 -31 100 -96 100 -161 0 -31 12 -45
24 -26 12 20 47 226 53 308 5 84 4 92 -13 97 -249 76 -384 99 -604 102 -96 2
-188 1 -205 -1z m355 -28 c113 -14 246 -39 305 -56 17 -5 56 -16 88 -25 l58
-16 -6 -57 c-8 -76 -25 -193 -32 -215 -4 -14 -10 -9 -33 26 -15 24 -43 54 -63
66 -71 43 -367 91 -568 91 -256 0 -449 -74 -621 -238 -176 -169 -273 -387
-285 -647 -13 -294 89 -558 296 -766 172 -172 378 -266 657 -300 116 -13 267
-5 284 16 8 10 11 101 8 312 -3 328 -3 329 -71 401 l-31 32 284 0 284 0 -36
-37 c-68 -69 -68 -72 -68 -471 l0 -359 -92 -26 c-277 -78 -599 -106 -880 -76
-478 52 -840 349 -965 794 -34 123 -43 352 -19 476 52 255 170 480 350 667
310 321 713 463 1156 408z"/>
</g>
</svg>
