<?xml version="1.0" standalone="no"?>
<!DOCTYPE svg PUBLIC "-//W3C//DTD SVG 20010904//EN"
 "http://www.w3.org/TR/2001/REC-SVG-20010904/DTD/svg10.dtd">
<svg version="1.0" xmlns="http://www.w3.org/2000/svg"
 width="512.000000pt" height="512.000000pt" viewBox="0 0 512.000000 512.000000"
 preserveAspectRatio="xMidYMid meet">

<g transform="translate(0.000000,512.000000) scale(0.100000,-0.100000)"
fill="#000000" stroke="none">
<path d="M0 2560 l0 -2560 2560 0 2560 0 0 2560 0 2560 -2560 0 -2560 0 0
-2560z m4130 2228 c67 -33 143 -106 175 -168 13 -25 34 -86 48 -135 14 -50
100 -351 192 -670 92 -319 169 -589 172 -600 3 -11 30 -105 60 -210 31 -104
59 -203 63 -220 4 -16 51 -181 105 -365 142 -486 142 -487 126 -562 -16 -79
-51 -144 -104 -196 -23 -22 -177 -123 -342 -225 -165 -101 -453 -277 -640
-392 -476 -291 -644 -395 -685 -420 -19 -13 -107 -66 -195 -120 -88 -54 -189
-115 -223 -137 -35 -22 -84 -48 -109 -59 -60 -25 -175 -35 -233 -19 -80 21
-1404 521 -1446 545 -48 28 -106 90 -128 136 -13 30 -134 348 -216 569 -15 41
-40 107 -55 145 -15 39 -40 104 -55 145 -15 41 -67 179 -115 305 -303 799
-455 1210 -466 1259 -22 101 20 223 106 308 48 47 72 59 440 212 88 37 169 71
180 76 11 5 85 36 165 68 180 75 528 220 555 232 11 5 92 38 180 75 88 36 169
70 180 75 11 5 92 39 180 75 88 36 198 82 245 102 89 38 138 47 430 77 279 30
435 46 475 51 22 3 87 10 145 15 58 6 121 13 140 15 19 2 85 9 145 15 61 7
139 15 175 20 36 4 112 7 170 6 92 -1 112 -5 160 -28z"/>
<path d="M4150 4706 c0 -2 8 -10 18 -17 15 -13 16 -12 3 4 -13 16 -21 21 -21
13z"/>
<path d="M4205 4650 c10 -11 20 -20 23 -20 3 0 -3 9 -13 20 -10 11 -20 20 -23
20 -3 0 3 -9 13 -20z"/>
<path d="M1458 3873 c6 -2 18 -2 25 0 6 3 1 5 -13 5 -14 0 -19 -2 -12 -5z"/>
<path d="M1379 3833 l-24 -28 28 24 c25 23 32 31 24 31 -2 0 -14 -12 -28 -27z"/>
<path d="M3055 3825 l90 -12 -109 -2 -108 -1 33 -38 c33 -37 37 -39 114 -45
89 -6 175 -26 175 -40 0 -5 -14 -6 -32 -3 -54 12 -151 26 -180 26 l-27 0 33
-57 c19 -32 48 -97 66 -144 l32 -86 56 23 c85 34 142 45 142 28 0 -8 -9 -14
-20 -14 -21 0 -150 -46 -162 -58 -4 -4 -4 -18 -1 -32 6 -22 7 -22 13 -5 6 17
9 16 36 -12 66 -69 104 -130 100 -158 -1 -8 -18 -32 -37 -52 l-34 -36 31 22
c36 26 95 94 125 145 18 31 39 47 39 31 0 -12 -30 -62 -58 -98 -17 -21 -29
-44 -26 -50 2 -7 8 -34 13 -60 7 -40 6 -47 -6 -43 -8 3 -12 2 -9 -3 3 -4 -12
-16 -34 -26 -22 -10 -39 -20 -37 -22 6 -5 129 53 171 82 21 14 41 23 45 20 9
-10 -43 -48 -124 -91 -74 -39 -91 -53 -40 -34 23 9 26 8 21 -5 -4 -11 -2 -14
6 -9 8 5 9 0 5 -16 -3 -13 -1 -31 6 -39 9 -12 9 -13 0 -7 -7 4 -13 3 -13 -1 0
-5 6 -15 13 -22 10 -11 9 -12 -1 -6 -9 5 -12 1 -10 -11 2 -11 7 -22 11 -25 5
-3 -11 -10 -35 -14 -24 -4 -38 -9 -33 -11 6 -2 52 4 103 15 133 27 121 2 -15
-31 -67 -16 -95 -27 -75 -27 32 -1 32 -1 17 -25 -13 -19 -13 -26 -3 -32 8 -5
-5 -12 -37 -20 -49 -11 -48 -12 30 -7 44 3 106 8 138 12 41 6 57 4 57 -4 0
-12 -124 -34 -205 -36 -22 -1 16 -7 85 -14 69 -7 170 -11 225 -8 72 3 96 2 85
-6 -8 -6 -28 -11 -45 -12 -24 -1 -26 -2 -10 -7 11 -4 22 -18 24 -32 2 -14 4
-32 6 -40 1 -8 -7 -23 -18 -32 -11 -10 -16 -18 -12 -18 4 0 1 -8 -8 -18 -10
-10 -14 -22 -10 -25 3 -4 -1 -7 -10 -7 -9 0 -17 -6 -17 -12 0 -7 -13 -22 -29
-33 -16 -10 -29 -24 -28 -30 1 -5 -4 -9 -11 -7 -8 1 -11 -2 -7 -7 3 -6 -5 -20
-19 -32 -14 -12 -23 -26 -20 -31 3 -5 0 -7 -8 -6 -7 2 -12 -3 -10 -11 2 -9 -3
-11 -15 -7 -9 4 -14 4 -10 0 7 -7 -30 -44 -45 -44 -5 0 -7 -4 -3 -9 3 -5 -4
-16 -15 -24 -11 -7 -17 -17 -13 -21 4 -4 0 -4 -10 0 -12 4 -17 1 -17 -10 0 -9
-8 -16 -20 -16 -11 0 -25 -9 -32 -20 -7 -11 -18 -20 -25 -20 -6 0 -18 -6 -25
-13 -12 -13 -96 -61 -163 -95 -16 -9 -33 -20 -37 -26 -4 -6 -8 -7 -8 -3 0 5
-12 2 -27 -6 -50 -26 -108 -50 -127 -54 -17 -3 -155 -48 -186 -60 -8 -4 -22
-7 -30 -8 -8 -1 -26 -6 -40 -10 -14 -5 -34 -9 -45 -11 -11 -1 -58 -10 -105
-20 -106 -21 -240 -25 -302 -8 -26 6 -49 10 -51 8 -2 -3 -16 0 -31 5 -17 7
-26 7 -26 1 0 -6 -6 -10 -13 -10 -7 0 -23 -9 -34 -19 -12 -11 -24 -17 -27 -14
-11 12 -6 -29 15 -109 11 -44 18 -82 16 -84 -2 -2 -23 41 -46 96 -24 54 -46
99 -49 99 -16 -2 -52 14 -52 23 0 15 -72 41 -118 42 -33 1 -43 -3 -48 -17 -3
-10 -8 -17 -10 -14 -2 2 7 46 21 98 28 108 55 273 54 339 0 28 -17 89 -44 160
-39 104 -43 112 -47 80 -2 -19 -4 -1 -4 42 0 42 -5 87 -12 100 -6 12 -32 82
-58 153 -54 152 -65 175 -93 195 -12 8 -21 20 -21 27 0 6 -6 16 -13 20 -8 4
-27 28 -42 52 -25 36 -30 40 -36 25 -3 -11 -5 -22 -2 -26 2 -5 -1 -8 -8 -8 -6
0 -9 -8 -6 -20 3 -11 2 -20 -2 -20 -4 0 -7 -36 -6 -80 0 -44 -3 -80 -7 -80 -4
0 -4 -10 0 -22 5 -13 7 -36 5 -53 -2 -16 -5 -50 -6 -75 -2 -25 -7 -52 -12 -60
-5 -8 -10 -21 -11 -30 -1 -8 -5 -35 -9 -60 -4 -25 -8 -60 -8 -77 -1 -18 -5
-33 -10 -33 -4 0 -3 -9 3 -20 8 -14 8 -20 0 -20 -7 0 -8 -6 -2 -17 11 -20 9
-126 -3 -192 l-8 -43 -13 38 c-19 58 -50 249 -56 356 -1 15 -6 24 -11 21 -5
-3 -6 -18 -3 -34 5 -28 -4 -35 -36 -30 -5 0 -8 -4 -8 -10 0 -6 7 -9 14 -6 10
4 13 1 10 -7 -6 -15 -31 -17 -31 -2 -2 81 -16 302 -20 306 -8 7 5 -305 18
-453 35 -398 136 -716 252 -788 29 -18 43 -19 172 -14 132 5 317 12 1035 35
168 5 367 12 442 15 76 3 271 10 435 15 287 10 300 12 350 36 336 162 476
1129 258 1781 -71 211 -156 336 -275 398 -31 17 -71 20 -335 26 -165 4 -354 7
-420 7 l-120 -1 90 -12z m378 -187 c23 -8 38 -28 22 -28 -15 0 -74 30 -80 41
-6 9 -3 10 11 5 10 -5 31 -13 47 -18z m21 -180 c25 -65 58 -189 70 -260 4 -21
10 -38 15 -38 4 0 21 19 38 43 38 52 67 146 58 186 -3 16 -2 32 4 35 17 11 24
-61 12 -111 -16 -62 -44 -114 -83 -156 -29 -31 -32 -39 -26 -73 3 -22 9 -77
13 -124 4 -47 9 -87 10 -88 5 -5 152 46 197 68 21 10 40 14 44 9 7 -11 -72
-49 -169 -80 l-72 -23 2 -103 c1 -62 -2 -103 -8 -103 -6 0 -10 46 -9 118 1 64
-4 162 -10 217 -7 55 -13 116 -14 135 -2 19 -6 42 -8 50 -3 8 -13 53 -23 100
-14 70 -46 185 -73 259 -3 9 -2 14 1 10 4 -3 18 -35 31 -71z m527 -244 c25
-55 20 -101 -18 -156 -25 -37 -70 -74 -80 -65 -2 3 13 23 36 46 48 48 65 99
51 153 -6 20 -15 40 -20 43 -13 8 -13 25 1 25 5 0 19 -21 30 -46z m-660 -17
c-10 -9 -11 -8 -5 6 3 10 9 15 12 12 3 -3 0 -11 -7 -18z m57 -228 c-3 -8 -7
-3 -11 10 -4 17 -3 21 5 13 5 -5 8 -16 6 -23z m392 -188 c0 -26 -33 -48 -95
-65 -93 -26 -105 -27 -105 -12 0 9 22 18 62 26 74 14 118 35 118 55 0 8 5 15
10 15 6 0 10 -9 10 -19z"/>
<path d="M2562 3708 l-4 -102 -36 -34 c-35 -32 -35 -32 -3 -8 18 15 47 34 63
42 16 8 26 20 22 26 -4 6 -3 8 4 5 5 -4 8 -16 5 -27 -3 -11 0 -20 5 -20 6 0
20 -10 31 -22 20 -21 21 -21 41 -3 19 18 20 17 36 -21 9 -21 22 -55 30 -74 22
-61 15 -16 -10 56 -47 138 -134 284 -169 284 -8 0 -13 -33 -15 -102z"/>
<path d="M2637 3777 c16 -18 39 -49 51 -69 l22 -36 73 23 c83 26 131 34 134
20 0 -6 -24 -16 -55 -22 -32 -7 -76 -20 -98 -28 l-42 -16 34 -82 c18 -45 34
-87 34 -92 0 -7 15 -9 37 -7 35 4 37 4 23 -13 -8 -10 18 3 59 29 88 57 101 62
101 45 0 -8 -19 -24 -42 -37 -24 -12 -54 -32 -68 -45 -14 -12 -20 -18 -13 -14
8 6 21 -7 42 -40 17 -26 32 -52 33 -56 2 -4 29 6 61 23 38 21 57 27 57 18 0
-7 -24 -26 -54 -41 l-53 -28 22 -62 c13 -35 31 -101 41 -147 10 -47 18 -86 20
-88 1 -2 19 4 39 12 44 19 45 19 45 6 0 -6 -19 -20 -43 -31 -39 -19 -43 -24
-39 -50 5 -31 7 -31 70 -8 19 7 21 12 13 28 -8 14 -7 27 4 48 17 32 20 55 4
33 -9 -12 -10 -12 -7 -1 7 25 27 24 33 -1 3 -13 10 -57 15 -98 l9 -75 -5 90
c-18 326 -115 652 -236 798 l-40 47 -155 0 -155 0 29 -33z m43 18 c0 -7 -30
-13 -34 -7 -3 4 4 9 15 9 10 1 19 0 19 -2z m487 -687 c-3 -8 -6 -5 -6 6 -1 11
2 17 5 13 3 -3 4 -12 1 -19z m-71 -133 c-10 -7 -15 -18 -11 -24 3 -6 1 -11 -4
-11 -18 0 -13 28 7 39 25 15 30 13 8 -4z"/>
<path d="M2400 3725 c13 -14 26 -25 28 -25 3 0 -5 11 -18 25 -13 14 -26 25
-28 25 -3 0 5 -11 18 -25z"/>
<path d="M2367 3709 c7 -7 15 -10 18 -7 3 3 -2 9 -12 12 -14 6 -15 5 -6 -5z"/>
<path d="M2326 3675 c-9 -26 -7 -32 5 -12 6 10 9 21 6 23 -2 3 -7 -2 -11 -11z"/>
<path d="M2560 3559 c-19 -17 -29 -28 -22 -24 8 4 12 -3 13 -22 2 -23 2 -24 6
-5 2 12 11 22 20 22 10 0 13 4 7 13 -5 7 -2 5 7 -5 14 -14 18 -15 22 -4 7 16
-2 56 -12 56 -4 0 -22 -14 -41 -31z"/>
<path d="M2489 3503 l-24 -28 28 24 c25 23 32 31 24 31 -2 0 -14 -12 -28 -27z"/>
<path d="M2633 3489 c-48 -36 -72 -61 -40 -43 28 17 108 84 100 84 -4 0 -32
-18 -60 -41z"/>
<path d="M2690 3493 c-8 -8 -33 -30 -55 -49 -34 -30 -31 -29 18 7 31 23 57 45
57 50 0 11 -2 11 -20 -8z"/>
<path d="M1497 3468 c22 -25 31 -53 38 -126 3 -26 7 -56 10 -67 2 -11 7 -42
10 -70 3 -27 8 -66 11 -85 3 -19 7 -69 10 -110 2 -51 17 -120 47 -217 24 -79
46 -146 50 -150 12 -12 7 198 -8 332 -21 190 -56 337 -101 426 -18 37 -64 89
-77 89 -6 0 -1 -10 10 -22z"/>
<path d="M2704 3338 l-19 -23 23 19 c21 18 27 26 19 26 -2 0 -12 -10 -23 -22z"/>
<path d="M1741 3254 c0 -11 3 -14 6 -6 3 7 2 16 -1 19 -3 4 -6 -2 -5 -13z"/>
<path d="M1752 3190 c0 -14 2 -19 5 -12 2 6 2 18 0 25 -3 6 -5 1 -5 -13z"/>
<path d="M3299 3123 c-18 -21 -22 -28 -8 -15 14 12 31 22 37 22 7 0 12 7 12
15 0 21 -2 20 -41 -22z"/>
<path d="M1764 3055 c2 -55 1 -91 -1 -80 -3 11 -10 25 -15 30 -8 7 -9 6 -4 -2
5 -9 -1 -11 -24 -7 -26 6 -29 4 -23 -11 4 -13 3 -16 -5 -11 -7 4 -12 2 -12 -3
0 -6 5 -11 10 -11 6 0 10 -5 10 -11 0 -5 -5 -7 -10 -4 -10 6 -7 -51 7 -155 4
-25 8 -54 9 -65 1 -11 5 -49 9 -84 4 -39 3 -61 -3 -57 -5 3 1 -31 14 -77 14
-45 30 -104 38 -132 l14 -50 7 70 c9 85 -2 628 -15 705 -8 48 -8 42 -6 -45z"/>
<path d="M3338 3095 c2 -14 6 -25 8 -25 2 0 4 11 4 25 0 14 -4 25 -9 25 -4 0
-6 -11 -3 -25z"/>
<path d="M3239 3073 c-13 -16 -12 -17 4 -4 16 13 21 21 13 21 -2 0 -10 -8 -17
-17z"/>
<path d="M3155 2930 c-3 -5 -24 -15 -45 -21 l-40 -12 2 -51 1 -51 4 45 c4 45
15 60 43 60 13 0 13 -1 0 -11 -13 -8 -12 -10 3 -7 10 2 17 6 15 9 -2 4 6 16
16 28 11 12 16 21 13 21 -3 0 -9 -4 -12 -10z"/>
<path d="M3248 2803 c6 -2 18 -2 25 0 6 3 1 5 -13 5 -14 0 -19 -2 -12 -5z"/>
<path d="M3090 2780 c-20 -6 -21 -8 -5 -8 11 0 34 4 50 8 27 7 27 8 5 8 -14 0
-36 -4 -50 -8z"/>
<path d="M3248 2763 c7 -3 16 -2 19 1 4 3 -2 6 -13 5 -11 0 -14 -3 -6 -6z"/>
<path d="M3085 2740 c-13 -6 -5 -7 25 -3 25 3 47 7 49 9 9 8 -55 2 -74 -6z"/>
<path d="M3093 2673 c15 -2 37 -2 50 0 12 2 0 4 -28 4 -27 0 -38 -2 -22 -4z"/>
<path d="M3170 2662 c0 -6 -8 -13 -17 -15 -16 -4 -16 -5 -1 -6 18 -1 34 16 24
26 -3 4 -6 1 -6 -5z"/>
<path d="M2375 380 c11 -12 33 -29 50 -37 l30 -15 -30 26 c-16 15 -39 31 -50
38 -20 11 -20 11 0 -12z"/>
</g>
</svg>
