<?xml version="1.0" standalone="no"?>
<!DOCTYPE svg PUBLIC "-//W3C//DTD SVG 20010904//EN"
 "http://www.w3.org/TR/2001/REC-SVG-20010904/DTD/svg10.dtd">
<svg version="1.0" xmlns="http://www.w3.org/2000/svg"
 width="225.000000pt" height="225.000000pt" viewBox="0 0 225.000000 225.000000"
 preserveAspectRatio="xMidYMid meet">

<g transform="translate(0.000000,225.000000) scale(0.100000,-0.100000)"
fill="#000000" stroke="none">
<path d="M0 1125 l0 -1125 1125 0 1125 0 0 1125 0 1125 -1125 0 -1125 0 0
-1125z m904 149 c20 -8 21 -38 1 -54 -12 -10 -18 -10 -30 0 -18 15 -20 46 -2
53 6 3 13 6 14 6 1 1 8 -2 17 -5z m-346 -31 c3 -22 0 -23 -72 -23 l-76 0 0
-35 0 -35 70 0 c68 0 70 -1 70 -25 0 -24 -2 -25 -70 -25 l-70 0 0 -35 0 -34
73 -3 c66 -3 72 -5 75 -25 3 -23 1 -23 -97 -23 l-101 0 0 145 0 146 98 -3 c92
-3 97 -4 100 -25z m252 -118 l0 -145 -25 0 c-14 0 -25 5 -25 11 0 5 -10 3 -22
-5 -30 -21 -56 -20 -95 4 -63 38 -63 142 0 180 39 24 65 25 95 4 22 -15 22
-15 22 40 0 53 1 56 25 56 l25 0 0 -145z m921 83 c24 -34 48 -68 52 -75 6 -9
-9 -37 -43 -83 -47 -63 -55 -70 -86 -70 -19 0 -34 2 -34 5 0 3 22 35 49 72
l49 66 -49 65 c-27 36 -49 69 -49 73 0 5 15 9 33 9 29 0 38 -7 78 -62z m159
53 c0 -6 -48 -75 -77 -111 -3 -3 -13 6 -23 19 -17 24 -17 25 7 63 21 31 31 38
59 38 19 0 34 -4 34 -9z m-850 -56 c0 -20 5 -25 25 -25 33 0 35 -37 3 -42 -19
-2 -24 -10 -26 -46 -4 -47 10 -72 39 -72 12 0 19 -7 19 -20 0 -17 -7 -20 -45
-20 -55 0 -65 15 -65 99 0 48 -3 61 -15 61 -8 0 -15 9 -15 20 0 11 7 20 15 20
9 0 15 9 15 25 0 20 5 25 25 25 20 0 25 -5 25 -25z m273 -55 c78 -86 -17 -212
-126 -167 -37 16 -67 59 -67 97 0 96 127 142 193 70z m-393 -70 l0 -100 -30 0
-30 0 0 100 0 100 30 0 30 0 0 -100z m520 90 c0 -7 6 -7 19 0 11 5 27 10 36
10 24 0 15 -44 -10 -48 -32 -6 -45 -32 -45 -94 0 -58 0 -58 -30 -58 l-30 0 0
100 0 100 30 0 c17 0 30 -5 30 -10z m413 -130 c20 -27 37 -52 37 -55 0 -3 -15
-5 -34 -5 -26 0 -39 7 -59 34 -24 30 -25 35 -11 55 8 11 18 21 22 21 4 0 24
-22 45 -50z"/>
<path d="M667 1122 c-36 -40 -9 -102 44 -102 34 0 49 18 49 55 0 56 -58 85
-93 47z"/>
<path d="M1196 1125 c-9 -9 -16 -29 -16 -45 0 -61 70 -81 100 -27 13 24 13 30
0 55 -18 32 -60 41 -84 17z"/>
</g>
</svg>
