<?xml version="1.0" standalone="no"?>
<!DOCTYPE svg PUBLIC "-//W3C//DTD SVG 20010904//EN"
 "http://www.w3.org/TR/2001/REC-SVG-20010904/DTD/svg10.dtd">
<svg version="1.0" xmlns="http://www.w3.org/2000/svg"
 width="2048.000000pt" height="2048.000000pt" viewBox="0 0 2048.000000 2048.000000"
 preserveAspectRatio="xMidYMid meet">

<g transform="translate(0.000000,2048.000000) scale(0.100000,-0.100000)"
fill="#000000" stroke="none">
<path d="M10101 19929 c-212 -20 -395 -86 -584 -211 -80 -53 -212 -181 -1015
-982 l-922 -921 1113 -1113 1113 -1113 75 21 c203 56 458 70 654 35 311 -54
573 -191 801 -419 228 -229 361 -484 415 -794 36 -211 20 -486 -39 -678 l-19
-62 1072 -1072 1073 -1073 74 21 c213 62 476 75 685 34 311 -62 552 -191 779
-417 228 -228 362 -484 416 -800 28 -166 21 -420 -15 -575 -68 -287 -196 -517
-402 -724 -221 -222 -495 -364 -807 -417 -105 -18 -148 -20 -293 -16 -185 6
-263 20 -421 72 -370 123 -691 400 -866 749 -175 348 -202 777 -72 1153 l26
76 -996 996 -996 996 0 -2632 0 -2631 74 -41 c104 -57 217 -145 318 -246 197
-198 330 -440 396 -719 24 -101 27 -129 27 -321 0 -235 -9 -300 -71 -485 -157
-472 -557 -842 -1041 -964 -275 -70 -576 -59 -840 29 -496 166 -872 585 -983
1094 -75 344 -28 694 135 1009 143 274 377 505 653 643 l102 51 0 2657 0 2657
-82 39 c-121 58 -271 161 -371 255 -428 401 -579 1001 -393 1562 l32 97 -1098
1098 -1098 1098 -2911 -2910 c-1600 -1601 -2934 -2939 -2964 -2975 -193 -234
-288 -498 -288 -800 0 -295 88 -546 271 -778 34 -42 1993 -2008 4354 -4368
4068 -4066 4298 -4295 4396 -4359 303 -199 660 -260 1005 -170 152 39 280 100
427 202 84 59 8618 8591 8685 8683 319 441 335 993 40 1442 -64 98 -291 327
-4389 4424 -4097 4098 -4326 4325 -4424 4389 -182 119 -372 186 -586 205 -61
5 -118 9 -126 9 -8 -1 -53 -5 -99 -10z"/>
</g>
</svg>
