<svg fill="#000000" xmlns="http://www.w3.org/2000/svg"  viewBox="0 0 16 16" width="32px" height="32px"><path d="M 8 0.7265625 C 7.74 0.7265625 7.48 0.7946875 7.25 0.9296875 L 2.25 3.8105469 C 1.79 4.0805469 1.5 4.579375 1.5 5.109375 L 1.5 10.890625 C 1.5 10.960625 1.5097656 11.039375 1.5097656 11.109375 C 1.5797656 11.549375 1.85 11.959453 2.25 12.189453 L 7.25 15.070312 C 7.48 15.210313 7.74 15.269531 8 15.269531 C 8.26 15.269531 8.52 15.210313 8.75 15.070312 L 13.070312 12.580078 L 13.089844 12.570312 L 13.75 12.189453 C 14.21 11.919453 14.5 11.420625 14.5 10.890625 L 14.5 5.109375 C 14.5 4.579375 14.21 4.0805469 13.75 3.8105469 L 8.75 0.9296875 C 8.52 0.7946875 8.26 0.7265625 8 0.7265625 z M 8 1.7304688 C 8.09 1.7304688 8.17 1.7490625 8.25 1.7890625 L 12.980469 4.5195312 L 13.25 4.6796875 C 13.263965 4.6880668 13.270145 4.7051422 13.283203 4.7148438 L 8.9667969 6.9824219 C 7.8827969 7.5904219 7.9882812 8.3404687 7.9882812 9.2304688 L 8.0019531 14.001953 C 8.0019531 14.150244 8.0062291 14.165045 8.0078125 14.267578 C 7.9175813 14.268872 7.8273519 14.252192 7.75 14.210938 L 2.75 11.320312 C 2.6 11.230313 2.5 11.060625 2.5 10.890625 L 2.5 5.109375 C 2.5 4.939375 2.6 4.7696875 2.75 4.6796875 L 3.0292969 4.5195312 L 7.75 1.7890625 C 7.83 1.7490625 7.91 1.7304688 8 1.7304688 z M 9.5195312 8.0996094 C 9.5495312 8.0796094 9.5898438 8.1001563 9.5898438 8.1601562 L 9.5898438 8.5703125 C 9.7698437 8.5003125 9.9207813 8.4795313 10.050781 8.5195312 C 10.080781 8.5195312 10.099844 8.559375 10.089844 8.609375 L 9.9902344 8.9804688 C 9.9902344 9.0104687 9.9692187 9.0405469 9.9492188 9.0605469 C 9.9392188 9.0605469 9.9396875 9.0703125 9.9296875 9.0703125 C 9.9196875 9.0803125 9.900625 9.0800781 9.890625 9.0800781 C 9.830625 9.0700781 9.6792188 9.0303906 9.4492188 9.1503906 C 9.1992188 9.2803906 9.109375 9.4903906 9.109375 9.6503906 C 9.119375 9.8403906 9.2107813 9.9003906 9.5507812 9.9003906 C 10.000781 9.9103906 10.189453 10.100781 10.189453 10.550781 C 10.199453 11.000781 9.9596094 11.469766 9.5996094 11.759766 L 9.609375 12.060547 L 9.609375 12.179688 C 9.609375 12.229688 9.5790625 12.280781 9.5390625 12.300781 L 9.2890625 12.439453 C 9.2590625 12.459453 9.2207031 12.440625 9.2207031 12.390625 L 9.2207031 11.980469 C 9.0107031 12.070469 8.8001562 12.089063 8.6601562 12.039062 C 8.6401563 12.029063 8.630625 11.989219 8.640625 11.949219 L 8.7207031 11.570312 C 8.7307031 11.540313 8.7495313 11.510234 8.7695312 11.490234 C 8.7695312 11.490234 8.7790625 11.480469 8.7890625 11.480469 C 8.7990625 11.470469 8.8200781 11.470703 8.8300781 11.470703 C 8.9800781 11.520703 9.1598437 11.500156 9.3398438 11.410156 C 9.5698438 11.290156 9.7207031 11.060078 9.7207031 10.830078 C 9.7207031 10.620078 9.6000781 10.529297 9.3300781 10.529297 C 8.9800781 10.529297 8.650625 10.459219 8.640625 9.9492188 C 8.640625 9.5192188 8.8609375 9.0807813 9.2109375 8.8007812 L 9.2109375 8.3808594 C 9.2109375 8.3308594 9.2392969 8.27 9.2792969 8.25 L 9.5195312 8.0996094 z M 12 11 L 12 11.5 L 11 12 L 11 11.5 L 12 11 z"/></svg>