<?xml version="1.0" encoding="UTF-8"?>
<svg xmlns="http://www.w3.org/2000/svg" xmlns:xlink="http://www.w3.org/1999/xlink" viewBox="0 0 50 50" width="50px" height="50px">
<g id="surface113705918">
<path style=" stroke:none;fill-rule:nonzero;fill:rgb(18.039216%,80.000001%,44.313726%);fill-opacity:1;" d="M 9.433594 8 C 8.90625 8 8.472656 8.179688 8.101562 8.550781 C 6.265625 10.375 4.425781 12.191406 2.578125 14.003906 C 2.1875 14.386719 2 14.832031 2 15.367188 C 2.007812 23.40625 2.007812 39.382812 2.007812 40.882812 L 2.078125 41.996094 L 3.078125 41.996094 C 4.550781 41.996094 28.523438 41.992188 40.550781 42 C 41.09375 42 41.546875 41.8125 41.945312 41.421875 C 43.761719 39.609375 45.585938 37.808594 47.417969 36.015625 C 47.808594 35.625 48 35.171875 48 34.617188 C 47.992188 26.246094 48 9 48 9 L 48 8 Z M 19.09375 14 C 20.035156 14.003906 20.96875 14.082031 21.894531 14.320312 C 23.773438 14.800781 25.109375 15.902344 25.894531 17.660156 C 26.355469 18.695312 26.625 19.78125 26.78125 20.894531 C 26.945312 22.089844 27.019531 23.296875 26.992188 24.5 C 26.957031 26.0625 26.847656 27.613281 26.414062 29.125 C 26.109375 30.183594 25.644531 31.160156 24.871094 31.964844 C 24.578125 32.273438 24.238281 32.539062 23.902344 32.84375 C 24.679688 34.082031 25.464844 35.335938 26.28125 36.632812 C 25.292969 37.089844 24.328125 37.535156 23.316406 38 C 22.464844 36.621094 21.621094 35.253906 20.785156 33.90625 C 19.121094 34.132812 17.503906 34.082031 15.910156 33.664062 C 14.074219 33.183594 12.769531 32.09375 12.027344 30.359375 C 11.613281 29.394531 11.371094 28.394531 11.21875 27.367188 C 11.054688 26.269531 10.988281 25.160156 11 24.050781 C 11.019531 22.40625 11.117188 20.765625 11.589844 19.171875 C 11.761719 18.589844 11.980469 18.015625 12.234375 17.464844 C 12.964844 15.882812 14.21875 14.890625 15.890625 14.394531 C 16.628906 14.179688 17.378906 14.054688 18.144531 14.019531 C 18.460938 14.007812 18.777344 14 19.09375 14 Z M 31 16 L 34 16 L 34 20 L 38 20 L 38 23 L 34 23 C 34 23 33.988281 26.109375 34 28 C 34.003906 28.53125 34.019531 29.347656 34.0625 29.875 C 34.070312 30.015625 34.109375 30.152344 34.144531 30.292969 C 34.238281 30.628906 34.460938 30.851562 34.796875 30.921875 C 35.0625 30.976562 35.335938 31.003906 35.605469 31 C 36.230469 30.988281 37.019531 30.890625 37.644531 30.867188 C 37.703125 30.863281 37.757812 30.878906 37.863281 30.886719 C 37.929688 31.671875 37.972656 32.765625 38 33.582031 C 37.714844 33.636719 37.449219 33.6875 37.1875 33.734375 C 36.253906 33.902344 35.148438 34.050781 34.203125 33.96875 C 33.707031 33.921875 33.222656 33.820312 32.761719 33.625 C 32.15625 33.363281 31.726562 32.9375 31.46875 32.328125 C 31.160156 31.613281 31 30.769531 31 30 L 31 23 L 29 23 L 29 20 L 31 20 Z M 18.996094 17.019531 C 18.402344 17.019531 17.808594 17.089844 17.21875 17.234375 C 16.171875 17.496094 15.386719 18.050781 14.921875 18.9375 C 14.808594 19.148438 14.703125 19.367188 14.621094 19.589844 C 14.207031 20.664062 14.042969 21.78125 14.011719 22.910156 C 13.984375 23.953125 14.007812 25 14.0625 26.042969 C 14.117188 26.972656 14.308594 27.882812 14.667969 28.765625 C 15.113281 29.855469 15.960938 30.539062 17.21875 30.820312 C 18.417969 31.089844 19.621094 31.085938 20.816406 30.8125 C 21.992188 30.539062 22.828125 29.910156 23.25 28.878906 C 23.359375 28.617188 23.457031 28.347656 23.535156 28.074219 C 23.90625 26.789062 23.945312 25.476562 24 23.785156 C 23.941406 23.175781 23.882812 22.191406 23.757812 21.214844 C 23.65625 20.40625 23.425781 19.621094 23.019531 18.886719 C 22.546875 18.03125 21.789062 17.484375 20.769531 17.234375 C 20.179688 17.089844 19.585938 17.019531 18.996094 17.019531 Z M 18.996094 17.019531 "/>
</g>
</svg>
