<?xml version="1.0" encoding="UTF-8"?>
<svg xmlns="http://www.w3.org/2000/svg" xmlns:xlink="http://www.w3.org/1999/xlink" viewBox="0 0 50 50" width="50px" height="50px">
<g id="surface113708771">
<path style=" stroke:none;fill-rule:nonzero;fill:rgb(100%,9.411765%,0%);fill-opacity:1;" d="M 19.441406 14 C 8.699219 14 0 18.921875 0 25 C 0 31.070312 8.699219 36 19.441406 36 C 26.417969 36 32.53125 33.800781 35.960938 30.667969 C 32.832031 32.539062 28.140625 33.597656 22.902344 33.597656 C 13.46875 33.597656 5.832031 29.75 5.832031 25 C 5.832031 23.5625 6.539062 22.207031 7.777344 21.019531 L 10.089844 29.808594 L 11.679688 29.808594 L 13.917969 21.855469 L 16.128906 29.808594 L 17.722656 29.808594 L 20.476562 19.683594 L 18.683594 19.683594 L 16.894531 27.453125 L 14.726562 19.683594 L 13.082031 19.683594 L 10.921875 27.453125 L 9.171875 19.902344 C 12.28125 17.78125 17.265625 16.398438 22.898438 16.398438 C 28.160156 16.398438 32.871094 17.480469 36 19.359375 C 32.578125 16.210938 26.449219 14 19.4375 14 Z M 38.089844 20.222656 C 37.375 20.222656 36.738281 20.347656 36.167969 20.601562 C 35.601562 20.851562 35.121094 21.199219 34.730469 21.644531 C 34.34375 22.089844 34.042969 22.609375 33.835938 23.207031 C 33.628906 23.800781 33.523438 24.449219 33.523438 25.148438 C 33.523438 25.824219 33.628906 26.457031 33.839844 27.046875 C 34.046875 27.636719 34.34375 28.148438 34.734375 28.582031 C 35.125 29.019531 35.605469 29.359375 36.175781 29.609375 C 36.742188 29.855469 37.382812 29.980469 38.097656 29.980469 C 38.546875 29.980469 38.992188 29.886719 39.433594 29.699219 C 39.878906 29.511719 40.28125 29.183594 40.648438 28.714844 L 40.855469 29.769531 L 42.152344 29.769531 L 42.152344 24.738281 L 38.253906 24.738281 L 38.253906 26.269531 L 40.308594 26.269531 C 40.25 26.917969 40.035156 27.414062 39.664062 27.757812 C 39.292969 28.101562 38.773438 28.273438 38.09375 28.273438 C 37.632812 28.273438 37.242188 28.183594 36.917969 28.003906 C 36.597656 27.824219 36.339844 27.585938 36.136719 27.292969 C 35.9375 26.996094 35.792969 26.664062 35.699219 26.292969 C 35.609375 25.921875 35.566406 25.539062 35.566406 25.148438 C 35.566406 24.738281 35.609375 24.34375 35.699219 23.960938 C 35.792969 23.578125 35.9375 23.238281 36.136719 22.933594 C 36.335938 22.636719 36.597656 22.394531 36.917969 22.214844 C 37.238281 22.039062 37.628906 21.949219 38.089844 21.949219 C 38.582031 21.949219 39.003906 22.078125 39.351562 22.339844 C 39.699219 22.601562 39.933594 22.992188 40.054688 23.511719 L 42.007812 23.511719 C 41.957031 22.984375 41.8125 22.511719 41.578125 22.101562 C 41.34375 21.695312 41.046875 21.351562 40.6875 21.070312 C 40.328125 20.792969 39.921875 20.582031 39.476562 20.4375 C 39.03125 20.292969 38.566406 20.21875 38.089844 20.21875 Z M 43.429688 20.457031 L 43.429688 29.761719 L 50 29.761719 L 50 28.035156 L 45.46875 28.035156 L 45.46875 20.453125 Z M 26.496094 20.605469 L 26.496094 29.808594 L 27.746094 29.808594 L 27.746094 29.183594 C 27.859375 29.328125 28 29.480469 28.183594 29.613281 C 28.542969 29.871094 28.980469 30 29.492188 30 C 30.042969 30 30.535156 29.875 30.949219 29.636719 C 31.324219 29.417969 31.640625 29.109375 31.886719 28.710938 C 32.105469 28.363281 32.273438 27.953125 32.378906 27.496094 C 32.476562 27.097656 32.523438 26.664062 32.523438 26.238281 C 32.523438 25.769531 32.460938 25.324219 32.332031 24.921875 C 32.203125 24.511719 32.015625 24.148438 31.769531 23.847656 C 31.519531 23.535156 31.214844 23.292969 30.863281 23.128906 C 30.5 22.953125 30.089844 22.863281 29.644531 22.863281 C 29.234375 22.871094 28.863281 22.960938 28.535156 23.128906 C 28.265625 23.269531 28.023438 23.464844 27.8125 23.714844 L 27.8125 20.609375 Z M 22.738281 22.863281 C 22.191406 22.863281 21.703125 22.960938 21.277344 23.152344 C 20.878906 23.339844 20.539062 23.613281 20.261719 23.960938 C 19.757812 24.613281 19.488281 25.53125 19.488281 26.609375 C 19.488281 27.09375 19.554688 27.542969 19.691406 27.953125 C 19.828125 28.363281 20.027344 28.726562 20.285156 29.027344 C 20.828125 29.664062 21.605469 29.996094 22.527344 29.996094 C 23.011719 29.996094 23.410156 29.945312 23.738281 29.839844 C 24.027344 29.75 24.214844 29.632812 24.371094 29.527344 C 24.574219 29.394531 24.761719 29.234375 24.925781 29.042969 C 25.066406 28.882812 25.1875 28.703125 25.292969 28.507812 C 25.484375 28.160156 25.574219 27.835938 25.597656 27.664062 L 25.609375 27.550781 L 24.285156 27.550781 L 24.28125 27.644531 C 24.25 28.074219 23.683594 28.839844 22.683594 28.839844 C 21.246094 28.839844 20.90625 27.804688 20.882812 26.886719 L 25.6875 26.886719 L 25.6875 26.785156 C 25.6875 26.195312 25.625 25.65625 25.507812 25.183594 C 25.382812 24.703125 25.199219 24.285156 24.957031 23.945312 C 24.707031 23.59375 24.398438 23.324219 24.03125 23.140625 C 23.65625 22.957031 23.21875 22.859375 22.738281 22.859375 Z M 22.585938 24.054688 C 23.648438 24.054688 24.21875 24.628906 24.324219 25.808594 L 20.882812 25.808594 C 20.933594 24.847656 21.691406 24.054688 22.585938 24.054688 Z M 29.441406 24.058594 C 30.15625 24.058594 30.632812 24.335938 30.898438 24.910156 C 31.121094 25.386719 31.148438 25.964844 31.148438 26.414062 C 31.148438 27.136719 31.003906 27.742188 30.730469 28.164062 C 30.4375 28.613281 30.011719 28.84375 29.46875 28.84375 C 28.683594 28.84375 27.761719 28.292969 27.761719 26.738281 C 27.761719 25.996094 27.855469 25.421875 28.042969 24.988281 C 28.316406 24.363281 28.773438 24.058594 29.441406 24.058594 Z M 29.441406 24.058594 "/>
</g>
</svg>
