<svg xmlns="http://www.w3.org/2000/svg" width="512" height="512" enable-background="new 0 0 512 512" viewBox="0 0 512 512"><path fill="#B0CFE3" d="M378.791,42.453H132.208L8.917,256l123.291,213.548h246.583L502.083,256L378.791,42.453z M361.471,439.548   H149.529L43.558,256L149.529,72.453h211.942L467.442,256L361.471,439.548z"/><polygon fill="#0B1A1F" points="361.699 72.058 149.301 72.058 43.102 256 149.301 439.942 361.699 439.942 467.898 256"/><path fill="#B0D0E4" d="M186.545 317.389h80.296v30.379H148.729V164.234h37.816V317.389zM362.768 245.538c-4.96-.671-9.328-1.008-13.11-1.008-13.783 0-22.815 4.665-27.102 13.992v89.246h-36.429v-136.39h34.412l1.009 16.261c7.311-12.521 17.437-18.782 30.379-18.782 4.033 0 7.815.547 11.345 1.639L362.768 245.538z"/></svg>