<?xml version="1.0" standalone="no"?>
<!DOCTYPE svg PUBLIC "-//W3C//DTD SVG 20010904//EN"
 "http://www.w3.org/TR/2001/REC-SVG-20010904/DTD/svg10.dtd">
<svg version="1.0" xmlns="http://www.w3.org/2000/svg"
 width="460.000000pt" height="460.000000pt" viewBox="0 0 460.000000 460.000000"
 preserveAspectRatio="xMidYMid meet">

<g transform="translate(0.000000,460.000000) scale(0.100000,-0.100000)"
fill="#000000" stroke="none">
<path d="M2583 4243 c-7 -3 -13 -11 -13 -19 0 -8 -3 -14 -7 -14 -5 -1 -24 -24
-43 -52 -19 -27 -50 -70 -67 -94 -18 -24 -33 -47 -33 -50 0 -2 -5 -10 -10 -17
-6 -7 -18 -22 -28 -34 -15 -19 -28 -22 -111 -25 l-94 -2 -41 52 c-23 28 -75
97 -116 152 -41 55 -76 100 -77 100 -11 0 -160 -44 -168 -49 -5 -4 -31 -15
-57 -25 l-48 -18 0 -197 0 -196 -33 -18 c-19 -10 -45 -28 -58 -40 -55 -50 -47
-49 -180 -11 -68 19 -152 44 -187 54 l-63 18 -53 -72 c-29 -39 -66 -91 -83
-116 l-29 -45 87 -120 c48 -66 94 -128 102 -137 33 -36 38 -56 26 -101 -7 -23
-16 -47 -21 -53 -4 -6 -11 -27 -15 -48 l-8 -38 -155 -53 c-85 -29 -167 -57
-182 -64 l-28 -11 0 -107 c0 -60 3 -124 6 -143 6 -34 8 -36 87 -58 175 -49
279 -86 284 -101 3 -9 9 -25 13 -36 5 -11 16 -46 26 -78 l17 -58 -33 -47 c-19
-26 -52 -74 -74 -107 -23 -33 -43 -62 -46 -65 -14 -14 -60 -87 -60 -96 0 -6
10 -24 23 -41 12 -17 29 -41 37 -53 26 -39 94 -125 104 -132 9 -6 24 -3 61 12
36 15 297 100 307 100 5 0 27 -15 48 -33 22 -18 52 -40 67 -48 15 -7 31 -18
35 -24 4 -5 8 -91 8 -190 0 -99 4 -185 8 -191 4 -7 27 -18 52 -25 25 -7 50
-16 55 -20 6 -4 45 -16 88 -28 l79 -21 18 22 c11 13 19 26 20 31 0 4 8 15 18
25 10 10 28 36 41 57 13 22 29 45 35 50 6 6 23 28 39 50 54 79 46 74 154 79
l101 5 41 -57 c23 -31 50 -68 61 -82 11 -14 42 -55 71 -92 59 -78 51 -78 214
-18 l100 37 5 196 5 196 60 42 c33 24 64 49 68 56 11 18 36 16 99 -6 29 -11
89 -29 133 -41 44 -12 89 -25 100 -30 50 -21 56 -20 83 12 31 37 87 116 121
170 l23 38 -22 27 c-203 265 -218 292 -186 339 8 11 17 41 21 67 9 56 19 63
158 107 148 47 191 62 205 73 8 6 12 43 12 117 0 169 3 163 -99 195 -47 16
-106 34 -131 41 -25 7 -67 21 -93 31 -49 18 -49 18 -78 103 -34 98 -34 97 45
205 107 145 138 194 132 213 -6 17 -47 76 -108 156 -54 69 -50 67 -93 55 -22
-5 -53 -16 -70 -23 -16 -7 -83 -30 -147 -52 l-117 -38 -28 28 c-15 15 -40 34
-56 42 -64 34 -67 40 -67 150 0 151 -11 284 -24 284 -6 0 -24 7 -40 15 -25 13
-93 34 -181 55 -16 4 -36 5 -42 3z m-292 -793 c38 -12 69 -25 69 -30 0 -6 6
-10 14 -10 8 0 38 -22 68 -49 l53 -48 81 0 c97 0 166 -27 231 -89 39 -38 93
-126 93 -152 0 -7 25 -23 55 -36 203 -90 274 -332 153 -526 -59 -96 -163 -157
-287 -167 -68 -6 -69 -6 -85 -44 -22 -49 -118 -137 -189 -172 -150 -75 -354
-41 -482 80 l-49 46 -49 -13 c-52 -13 -99 -7 -209 27 -125 38 -247 171 -282
307 -28 106 -29 150 -6 233 12 43 32 97 46 121 39 65 123 144 191 177 49 24
63 36 68 59 21 87 91 185 169 237 104 68 224 85 347 49z"/>
<path d="M2077 3306 c-35 -13 -48 -22 -98 -66 -30 -27 -58 -94 -66 -159 l-8
-65 -50 -11 c-70 -16 -111 -40 -167 -97 -33 -34 -52 -64 -60 -94 -7 -24 -16
-44 -20 -44 -4 0 -8 -34 -8 -75 0 -41 3 -75 8 -75 4 0 13 -18 20 -41 14 -45
21 -56 73 -109 82 -83 220 -108 342 -61 41 16 43 15 73 -36 29 -50 52 -73 94
-95 14 -7 28 -16 31 -21 3 -4 34 -13 68 -19 160 -30 309 72 336 229 8 50 20
56 76 36 106 -36 224 9 269 102 30 62 25 163 -11 217 -28 43 -107 88 -154 88
-48 0 -62 18 -67 81 -4 45 -11 65 -37 97 -17 23 -46 48 -63 56 -39 20 -141 21
-171 2 -33 -21 -67 -29 -67 -16 0 6 -5 16 -10 23 -6 7 -23 31 -38 55 -62 94
-187 136 -295 98z"/>
<path d="M1715 871 c-42 -11 -87 -35 -108 -59 -23 -25 -32 -106 -18 -159 11
-39 17 -45 74 -71 34 -16 85 -35 112 -41 83 -20 116 -67 78 -111 -13 -15 -30
-20 -64 -20 -42 0 -66 9 -147 58 -18 10 -24 9 -42 -10 -38 -41 -41 -53 -17
-76 73 -69 240 -90 325 -42 65 37 92 104 72 178 -15 57 -70 98 -167 124 -94
25 -115 41 -111 82 5 48 42 63 114 48 31 -6 65 -19 75 -28 22 -20 41 -9 64 37
17 31 14 35 -51 67 -45 23 -143 35 -189 23z"/>
<path d="M480 596 l0 -276 55 0 54 0 3 87 3 88 45 3 45 3 57 -81 c31 -44 58
-85 60 -91 2 -6 32 -9 74 -7 l71 3 -63 90 -64 90 40 35 c47 41 60 73 60 144 0
86 -21 123 -87 153 -51 23 -73 27 -205 31 l-148 5 0 -277z m306 150 c8 -11 14
-41 14 -67 0 -40 -4 -51 -27 -69 -23 -18 -38 -20 -102 -18 l-76 3 -3 74 c-4
106 -7 104 94 100 71 -3 88 -7 100 -23z"/>
<path d="M1067 864 c-4 -4 -7 -128 -7 -276 l0 -268 205 0 205 0 0 45 0 44
-142 3 -143 3 -3 63 -3 62 126 0 125 0 0 50 0 50 -125 0 -126 0 3 63 3 62 138
3 138 3 -3 47 -3 47 -191 3 c-104 1 -193 -1 -197 -4z"/>
<path d="M2060 821 l0 -50 78 -3 77 -3 3 -222 2 -223 55 0 55 0 2 222 3 223
83 3 83 3 -3 47 -3 47 -217 3 -218 2 0 -49z"/>
<path d="M2963 823 c-11 -27 -33 -77 -48 -113 -14 -36 -33 -78 -40 -95 -12
-23 -94 -214 -122 -282 -4 -10 11 -13 55 -13 l61 0 19 53 20 52 128 3 129 2
21 -52 22 -53 61 -3 c69 -3 68 -11 18 98 -14 30 -35 80 -47 110 -13 30 -35 82
-50 115 -15 33 -42 97 -60 143 l-33 82 -56 0 -56 0 -22 -47z m117 -197 c17
-41 29 -80 25 -86 -10 -16 -125 -10 -132 6 -4 12 8 45 50 132 6 12 14 22 17
22 4 0 22 -33 40 -74z"/>
<path d="M3418 864 c-5 -4 -8 -128 -8 -276 l0 -268 60 0 60 0 0 74 0 73 88 6
c95 5 131 17 180 59 62 52 65 201 6 267 -41 46 -102 62 -249 68 -71 3 -133 2
-137 -3z m286 -123 c21 -20 26 -34 26 -70 -1 -76 -34 -101 -134 -101 l-66 0 0
101 0 101 74 -4 c62 -3 79 -7 100 -27z"/>
<path d="M3957 863 c-4 -3 -7 -127 -7 -275 l0 -268 55 0 55 0 0 275 0 275 -48
0 c-27 0 -52 -3 -55 -7z"/>
</g>
</svg>
